<svg width="1680" height="240" viewBox="0 0 1680 240" fill="none" xmlns="http://www.w3.org/2000/svg">
<rect width="1680" height="240" fill="black"/>
<g filter="url(#filter0_d_2_3)">
<path d="M596.569 175.24C595.033 175.24 593.689 175.112 592.537 174.856C591.385 174.664 590.361 174.376 589.465 173.992V166.696C590.489 166.952 591.577 167.176 592.729 167.368C593.881 167.56 595.097 167.656 596.377 167.656C597.977 167.656 599.481 167.336 600.889 166.696C602.361 166.056 603.545 164.936 604.441 163.336C605.337 161.736 605.785 159.496 605.785 156.616V88.456H614.425V155.944C614.425 160.36 613.689 163.976 612.217 166.792C610.745 169.672 608.665 171.784 605.977 173.128C603.289 174.536 600.153 175.24 596.569 175.24ZM671.395 138.664C671.395 142.76 670.403 146.248 668.419 149.128C666.435 151.944 663.587 154.12 659.875 155.656C656.227 157.192 651.907 157.96 646.915 157.96C644.355 157.96 641.891 157.832 639.523 157.576C637.219 157.32 635.107 156.968 633.187 156.52C631.267 156.008 629.571 155.4 628.099 154.696V146.44C630.403 147.464 633.251 148.392 636.643 149.224C640.099 150.056 643.651 150.472 647.299 150.472C650.691 150.472 653.539 150.024 655.843 149.128C658.147 148.232 659.875 146.952 661.027 145.288C662.179 143.624 662.755 141.672 662.755 139.432C662.755 137.192 662.275 135.304 661.315 133.768C660.355 132.232 658.691 130.824 656.323 129.544C654.019 128.2 650.787 126.792 646.627 125.32C643.683 124.232 641.091 123.08 638.851 121.864C636.675 120.584 634.851 119.144 633.379 117.544C631.907 115.944 630.787 114.12 630.019 112.072C629.315 110.024 628.963 107.656 628.963 104.968C628.963 101.32 629.891 98.216 631.747 95.656C633.603 93.032 636.163 91.016 639.427 89.608C642.755 88.2 646.563 87.496 650.851 87.496C654.627 87.496 658.083 87.848 661.219 88.552C664.355 89.256 667.203 90.184 669.763 91.336L667.075 98.728C664.707 97.704 662.115 96.84 659.299 96.136C656.547 95.432 653.667 95.08 650.659 95.08C647.779 95.08 645.379 95.496 643.459 96.328C641.539 97.16 640.099 98.344 639.139 99.88C638.179 101.352 637.699 103.08 637.699 105.064C637.699 107.368 638.179 109.288 639.139 110.824C640.099 112.36 641.667 113.736 643.843 114.952C646.019 116.168 648.963 117.48 652.675 118.888C656.707 120.36 660.099 121.96 662.851 123.688C665.667 125.352 667.779 127.368 669.187 129.736C670.659 132.104 671.395 135.08 671.395 138.664ZM679.731 135.016V127.528H702.963V135.016H679.731ZM716.14 157V88.456H724.78V149.32H754.732V157H716.14ZM824.417 122.632C824.417 127.944 823.745 132.776 822.401 137.128C821.057 141.416 819.041 145.128 816.353 148.264C813.729 151.4 810.433 153.8 806.465 155.464C802.561 157.128 798.017 157.96 792.833 157.96C787.457 157.96 782.785 157.128 778.817 155.464C774.849 153.736 771.553 151.336 768.929 148.264C766.305 145.128 764.353 141.384 763.073 137.032C761.793 132.68 761.153 127.848 761.153 122.536C761.153 115.496 762.305 109.352 764.609 104.104C766.913 98.856 770.401 94.76 775.073 91.816C779.809 88.872 785.761 87.4 792.929 87.4C799.777 87.4 805.537 88.872 810.209 91.816C814.881 94.696 818.401 98.792 820.769 104.104C823.201 109.352 824.417 115.528 824.417 122.632ZM770.273 122.632C770.273 128.392 771.073 133.352 772.673 137.512C774.273 141.672 776.737 144.872 780.065 147.112C783.457 149.352 787.713 150.472 792.833 150.472C798.017 150.472 802.241 149.352 805.505 147.112C808.833 144.872 811.297 141.672 812.897 137.512C814.497 133.352 815.297 128.392 815.297 122.632C815.297 113.992 813.505 107.24 809.921 102.376C806.337 97.448 800.673 94.984 792.929 94.984C787.745 94.984 783.457 96.104 780.065 98.344C776.737 100.52 774.273 103.688 772.673 107.848C771.073 111.944 770.273 116.872 770.273 122.632ZM869.369 120.808H893.081V154.408C889.369 155.624 885.625 156.52 881.849 157.096C878.073 157.672 873.785 157.96 868.985 157.96C861.881 157.96 855.897 156.552 851.033 153.736C846.169 150.856 842.457 146.792 839.897 141.544C837.401 136.232 836.153 129.96 836.153 122.728C836.153 115.56 837.561 109.352 840.377 104.104C843.193 98.856 847.225 94.792 852.473 91.912C857.785 88.968 864.185 87.496 871.673 87.496C875.513 87.496 879.129 87.848 882.521 88.552C885.977 89.256 889.177 90.248 892.121 91.528L888.857 99.016C886.425 97.928 883.673 97 880.601 96.232C877.593 95.464 874.457 95.08 871.193 95.08C865.753 95.08 861.081 96.2 857.177 98.44C853.273 100.68 850.297 103.88 848.249 108.04C846.201 112.136 845.177 117.032 845.177 122.728C845.177 128.168 846.041 133 847.769 137.224C849.561 141.384 852.345 144.648 856.121 147.016C859.897 149.32 864.857 150.472 871.001 150.472C873.049 150.472 874.841 150.408 876.377 150.28C877.977 150.088 879.417 149.864 880.697 149.608C882.041 149.352 883.289 149.096 884.441 148.84V128.488H869.369V120.808ZM939.213 120.808H962.925V154.408C959.213 155.624 955.469 156.52 951.693 157.096C947.917 157.672 943.629 157.96 938.829 157.96C931.725 157.96 925.741 156.552 920.877 153.736C916.013 150.856 912.301 146.792 909.741 141.544C907.245 136.232 905.997 129.96 905.997 122.728C905.997 115.56 907.405 109.352 910.221 104.104C913.037 98.856 917.069 94.792 922.317 91.912C927.629 88.968 934.029 87.496 941.517 87.496C945.357 87.496 948.973 87.848 952.365 88.552C955.821 89.256 959.021 90.248 961.965 91.528L958.701 99.016C956.269 97.928 953.517 97 950.445 96.232C947.437 95.464 944.301 95.08 941.037 95.08C935.597 95.08 930.925 96.2 927.021 98.44C923.117 100.68 920.141 103.88 918.093 108.04C916.045 112.136 915.021 117.032 915.021 122.728C915.021 128.168 915.885 133 917.613 137.224C919.405 141.384 922.189 144.648 925.965 147.016C929.741 149.32 934.701 150.472 940.845 150.472C942.893 150.472 944.685 150.408 946.221 150.28C947.821 150.088 949.261 149.864 950.541 149.608C951.885 149.352 953.133 149.096 954.285 148.84V128.488H939.213V120.808ZM1017.6 157H979.296V88.456H1017.6V96.04H987.936V117.448H1015.87V124.936H987.936V149.416H1017.6V157ZM1051.55 88.456C1057.25 88.456 1061.92 89.192 1065.57 90.664C1069.28 92.072 1072.03 94.216 1073.82 97.096C1075.62 99.976 1076.51 103.592 1076.51 107.944C1076.51 111.592 1075.84 114.632 1074.5 117.064C1073.15 119.496 1071.42 121.448 1069.31 122.92C1067.26 124.328 1065.09 125.448 1062.78 126.28L1081.6 157H1071.52L1054.91 128.68H1041.28V157H1032.64V88.456H1051.55ZM1051.07 95.944H1041.28V121.384H1051.55C1055.26 121.384 1058.3 120.904 1060.67 119.944C1063.04 118.92 1064.77 117.448 1065.86 115.528C1067.01 113.608 1067.58 111.208 1067.58 108.328C1067.58 105.32 1066.98 102.92 1065.76 101.128C1064.61 99.336 1062.82 98.024 1060.38 97.192C1057.95 96.36 1054.85 95.944 1051.07 95.944Z" fill="white"/>
</g>
<defs>
<filter id="filter0_d_2_3" x="557.465" y="55.4" width="556.135" height="151.84" filterUnits="userSpaceOnUse" color-interpolation-filters="sRGB">
<feFlood flood-opacity="0" result="BackgroundImageFix"/>
<feColorMatrix in="SourceAlpha" type="matrix" values="0 0 0 0 0 0 0 0 0 0 0 0 0 0 0 0 0 0 127 0" result="hardAlpha"/>
<feOffset/>
<feGaussianBlur stdDeviation="16"/>
<feComposite in2="hardAlpha" operator="out"/>
<feColorMatrix type="matrix" values="0 0 0 0 1 0 0 0 0 1 0 0 0 0 1 0 0 0 1 0"/>
<feBlend mode="normal" in2="BackgroundImageFix" result="effect1_dropShadow_2_3"/>
<feBlend mode="normal" in="SourceGraphic" in2="effect1_dropShadow_2_3" result="shape"/>
</filter>
</defs>
</svg>
